<svg width="28" height="28" viewBox="0 0 28 28" fill="none" xmlns="http://www.w3.org/2000/svg">
<circle cx="14" cy="14" r="14" fill="#3D2214"/>
<path d="M21.3493 6.67265H17.8423C17.4223 6.67265 17.0443 6.81965 17.0443 7.21865C17.0443 7.86966 18.1363 7.70165 18.1363 8.89865C18.1363 9.29765 18.0313 9.90666 17.6533 10.8517C17.0863 12.3007 15.1753 16.8157 14.9023 17.4457C14.8603 17.5507 14.8183 17.6137 14.7553 17.6137C14.6923 17.6137 14.6503 17.5087 14.6293 17.4457L11.4583 9.08765C11.3743 8.85666 11.3323 8.66765 11.3323 8.49965C11.3323 7.65965 12.3613 7.82765 12.3613 7.19765C12.3613 6.86165 12.0673 6.67265 11.6263 6.67265H6.88033C6.29233 6.67265 6.10333 6.94565 6.10333 7.23965C6.10333 7.47065 6.27133 7.61765 6.48133 7.72265C6.69133 7.82765 6.96433 7.97466 7.17433 8.16366C7.44733 8.41565 7.59433 8.73065 7.97233 9.67565L12.5293 21.5197C12.6133 21.7507 12.8023 21.8347 13.0333 21.8347H14.4193C14.6293 21.8347 14.7763 21.7297 14.8813 21.4987L19.5223 11.0617C19.9423 10.1167 20.2783 9.46565 20.6353 8.94066C21.1603 8.12165 21.5383 7.93265 21.8323 7.70165C22.0213 7.55465 22.1473 7.42865 22.1473 7.19765C22.1473 6.79866 21.7693 6.67265 21.3493 6.67265Z" fill="white"/>
</svg>
